<svg width="50" height="50" viewBox="0 0 50 50" fill="none" xmlns="http://www.w3.org/2000/svg">
<circle cx="25" cy="25" r="25" fill="#B9B9B9"/>
<g clip-path="url(#clip0)">
<path d="M25 14.7393C23.6364 14.7393 22.571 15.2193 21.804 16.1795C21.0369 17.1396 20.6534 18.367 20.6534 19.8615C20.6439 21.7184 21.2689 23.1903 22.5284 24.2773C22.6894 24.4222 22.7462 24.6079 22.6989 24.8344L22.3722 25.4865C22.268 25.7039 22.1141 25.8738 21.9105 25.9961C21.7069 26.1183 21.2784 26.2927 20.625 26.5191C20.5966 26.5282 19.9976 26.7139 18.8281 27.0762C17.6586 27.4385 17.036 27.6378 16.9602 27.674C16.1648 27.9911 15.6439 28.3217 15.3977 28.6659C15.1326 29.2365 15 30.6813 15 33.0001H35C35 30.6813 34.8674 29.2365 34.6023 28.6659C34.3561 28.3217 33.8352 27.9911 33.0398 27.674C32.964 27.6378 32.3414 27.4385 31.1719 27.0762C30.0024 26.7139 29.4034 26.5282 29.375 26.5191C28.7216 26.2927 28.2931 26.1183 28.0895 25.9961C27.8859 25.8738 27.732 25.7039 27.6278 25.4865L27.3011 24.8344C27.2538 24.6079 27.3106 24.4222 27.4716 24.2773C28.7311 23.1903 29.3561 21.7184 29.3466 19.8615C29.3466 18.367 28.9631 17.1396 28.196 16.1795C27.429 15.2193 26.3636 14.7393 25 14.7393Z" fill="white"/>
</g>
<defs>
<clipPath id="clip0">
<rect width="20" height="20" fill="white" transform="translate(15 13)"/>
</clipPath>
</defs>
</svg>
